<svg xmlns="http://www.w3.org/2000/svg" width="1200" height="760" viewBox="0 0 1200 760" role="img" aria-label="Target-X top candidate evidence matrix">
  <rect width="1200" height="760" fill="#f8fbff"/>
  <text x="62" y="72" font-family="Inter, Arial, sans-serif" font-size="34" font-weight="800" fill="#10233f">Target-X Top Candidate Evidence</text>
  <text x="62" y="112" font-family="Inter, Arial, sans-serif" font-size="18" fill="#64748b">Ranking uses evidence weighting. It is not a wet-lab affinity claim.</text>
  <g transform="translate(94 166)" font-family="Inter, Arial, sans-serif">
    <rect width="1010" height="486" rx="24" fill="#ffffff" stroke="#dbe4ef" stroke-width="2"/>
    <g font-size="16" font-weight="800" fill="#64748b">
      <text x="230" y="48">E1 fit</text><text x="355" y="48">ECD bind</text><text x="500" y="48">FTO</text><text x="625" y="48">Human</text><text x="765" y="48">Agg</text><text x="890" y="48">R1</text>
    </g>
    <g font-size="18" font-weight="800" fill="#10233f">
      <text x="36" y="105">ABX-014</text>
      <text x="36" y="170">ABX-027</text>
      <text x="36" y="235">ABX-033</text>
      <text x="36" y="300">ABX-041</text>
      <text x="36" y="365">ABX-052</text>
      <text x="36" y="430">P-BLOCK-01</text>
    </g>
    <g stroke="#e2e8f0" stroke-width="1">
      <line x1="30" y1="68" x2="970" y2="68"/><line x1="30" y1="133" x2="970" y2="133"/><line x1="30" y1="198" x2="970" y2="198"/><line x1="30" y1="263" x2="970" y2="263"/><line x1="30" y1="328" x2="970" y2="328"/><line x1="30" y1="393" x2="970" y2="393"/><line x1="30" y1="458" x2="970" y2="458"/>
    </g>
    <g>
      <rect x="224" y="82" width="72" height="36" rx="10" fill="#16a34a"/><rect x="349" y="82" width="72" height="36" rx="10" fill="#16a34a"/><rect x="489" y="82" width="72" height="36" rx="10" fill="#22c55e"/><rect x="619" y="82" width="72" height="36" rx="10" fill="#22c55e"/><rect x="755" y="82" width="72" height="36" rx="10" fill="#22c55e"/><rect x="880" y="82" width="72" height="36" rx="10" fill="#0ea5e9"/>
      <rect x="224" y="147" width="72" height="36" rx="10" fill="#16a34a"/><rect x="349" y="147" width="72" height="36" rx="10" fill="#22c55e"/><rect x="489" y="147" width="72" height="36" rx="10" fill="#22c55e"/><rect x="619" y="147" width="72" height="36" rx="10" fill="#84cc16"/><rect x="755" y="147" width="72" height="36" rx="10" fill="#22c55e"/><rect x="880" y="147" width="72" height="36" rx="10" fill="#0ea5e9"/>
      <rect x="224" y="212" width="72" height="36" rx="10" fill="#84cc16"/><rect x="349" y="212" width="72" height="36" rx="10" fill="#16a34a"/><rect x="489" y="212" width="72" height="36" rx="10" fill="#22c55e"/><rect x="619" y="212" width="72" height="36" rx="10" fill="#84cc16"/><rect x="755" y="212" width="72" height="36" rx="10" fill="#f59e0b"/><rect x="880" y="212" width="72" height="36" rx="10" fill="#0ea5e9"/>
      <rect x="224" y="277" width="72" height="36" rx="10" fill="#f59e0b"/><rect x="349" y="277" width="72" height="36" rx="10" fill="#84cc16"/><rect x="489" y="277" width="72" height="36" rx="10" fill="#ef4444"/><rect x="619" y="277" width="72" height="36" rx="10" fill="#84cc16"/><rect x="755" y="277" width="72" height="36" rx="10" fill="#f59e0b"/><rect x="880" y="277" width="72" height="36" rx="10" fill="#f97316"/>
      <rect x="224" y="342" width="72" height="36" rx="10" fill="#84cc16"/><rect x="349" y="342" width="72" height="36" rx="10" fill="#22c55e"/><rect x="489" y="342" width="72" height="36" rx="10" fill="#84cc16"/><rect x="619" y="342" width="72" height="36" rx="10" fill="#22c55e"/><rect x="755" y="342" width="72" height="36" rx="10" fill="#22c55e"/><rect x="880" y="342" width="72" height="36" rx="10" fill="#0ea5e9"/>
      <rect x="224" y="407" width="72" height="36" rx="10" fill="#16a34a"/><rect x="349" y="407" width="72" height="36" rx="10" fill="#22c55e"/><rect x="489" y="407" width="72" height="36" rx="10" fill="#16a34a"/><rect x="619" y="407" width="72" height="36" rx="10" fill="#84cc16"/><rect x="755" y="407" width="72" height="36" rx="10" fill="#22c55e"/><rect x="880" y="407" width="72" height="36" rx="10" fill="#64748b"/>
    </g>
  </g>
  <g transform="translate(96 678)" font-family="Inter, Arial, sans-serif">
    <rect width="1008" height="48" rx="16" fill="#ecfdf5" stroke="#bbf7d0"/>
    <text x="22" y="31" font-size="18" font-weight="800" fill="#166534">Release logic:</text>
    <text x="150" y="31" font-size="18" fill="#166534">ABX-014 / 027 / 033 stay primary. ABX-041 is removed from primary because FTO and aggregation risks stack.</text>
  </g>
</svg>
